# xmcd
#
# Track frame offsets: 
#        150
#        17827
#        34022
#        46000
#        57832
#        69017
#        87725
#        102885
#        123962
#        140297
#        148397
#        160827
#
# Disc length: 2325 seconds
#
# Revision: 2
# Processed by: cddbd v1.5.2PL0 Copyright (c) Steve Scherf et al.
# Submitted via: ExactAudioCopyFreeDBPlugin 1.0
#
DISCID=9d09130c
DTITLE=Deacon John - Deacon John's Jump Blues
DYEAR=2003
DGENRE=Blues
TTITLE0=Jumpin' in the Morning (ft Henry Butler)
TTITLE1=Nobody Knows You When You Are Down and Out (ft Davell Crawford
TTITLE1=)
TTITLE2=I Didn't Want to Do It (ft Dr. John)
TTITLE3=Jesus Is on the Main Line (the Zion Harmonizers)
TTITLE4=Someday (ft Davell Crawford)
TTITLE5=Hook Line and Sinker - Go on Fool (ft Davell Crawford)
TTITLE6=Losing Battle (ft Allen Toussaint)
TTITLE7=Let The Good Times Roll - Feel So Good (ft Allen Toussaint and
TTITLE7=Tricia "Teedy" Boutté)
TTITLE8=Piece of My Heart (ft Allen Toussaint and Tricia "Teedy" Boutt
TTITLE8=é)
TTITLE9=Tipitina (ft Dr. John)
TTITLE10=Going Back to New Orleans (ft Dr. John)
TTITLE11=Nobody Knows You (reprise) (piano solo ft Davell Crawford)
EXTD=YEAR: 2003
EXTT0=
EXTT1=
EXTT2=
EXTT3=
EXTT4=
EXTT5=
EXTT6=
EXTT7=
EXTT8=
EXTT9=
EXTT10=
EXTT11=
PLAYORDER=
